Coordinates
version=1
nRows=25
nColumns=24
inDegrees=yes

Units are S.I. units (second, meters, Newtons, ...)
If the header above contains a line with 'inDegrees', this indicates whether rotational values are in degrees (yes) or radians (no).

endheader
time	pelvis_tilt	pelvis_list	pelvis_rotation	pelvis_tx	pelvis_ty	pelvis_tz	hip_flexion_r	hip_adduction_r	hip_rotation_r	knee_angle_r	ankle_angle_r	subtalar_angle_r	mtp_angle_r	hip_flexion_l	hip_adduction_l	hip_rotation_l	knee_angle_l	ankle_angle_l	subtalar_angle_l	mtp_angle_l	lumbar_extension	lumbar_bending	lumbar_rotation
1.550000	8.773901	2.515611	-178.851712	0.292481	0.511999	-1.215812	74.853575	-30.962714	-9.052670	-113.659737	42.899062	10.841780	0.000000	79.920684	-32.950943	1.530347	-112.633283	43.092208	21.919482	0.000000	-11.028933	2.115020	3.199570
1.555000	8.757706	2.527657	-178.859145	0.292482	0.511224	-1.215907	74.940017	-30.962964	-9.010423	-113.809174	42.953959	10.848790	0.000000	80.027005	-32.967691	1.629179	-112.761305	43.160790	21.900265	0.000000	-11.094628	2.132280	3.178438
1.560000	8.730230	2.563742	-178.876602	0.292634	0.510343	-1.215961	75.018249	-30.931037	-8.885734	-113.941915	43.111762	11.145223	0.000000	80.176892	-32.988362	1.775054	-112.927178	43.188752	21.865659	0.000000	-11.074321	1.937180	3.819166
1.565000	8.722637	2.553736	-178.872137	0.292654	0.509573	-1.215985	75.127880	-30.988781	-8.893891	-114.085891	43.161080	11.035509	0.000000	80.274602	-32.980084	1.840420	-113.072612	43.240396	21.869151	0.000000	-11.118130	1.920913	3.834755
1.570000	8.786616	2.559325	-178.877917	0.292623	0.508905	-1.216186	75.260827	-30.969417	-8.809034	-114.207487	43.176508	11.139259	0.000000	80.422660	-32.995267	1.936100	-113.184762	43.229481	21.936823	0.000000	-11.200510	2.181324	3.045942
1.575000	8.775315	2.552080	-178.868673	0.292661	0.508119	-1.216299	75.354689	-31.011867	-8.814844	-114.340817	43.243730	11.045314	0.000000	80.531709	-33.004984	1.989860	-113.291516	43.285202	21.909585	0.000000	-11.258597	2.142381	3.135182
1.580000	8.791020	2.575294	-178.874894	0.292686	0.507467	-1.216393	75.446225	-30.994681	-8.736987	-114.470264	43.273122	11.200222	0.000000	80.666308	-33.018718	2.089634	-113.404817	43.304241	21.897441	0.000000	-11.284505	2.195665	3.072571
1.585000	8.777387	2.582924	-178.868057	0.292681	0.506813	-1.216420	75.524704	-31.033693	-8.761960	-114.593391	43.347515	11.052659	0.000000	80.763731	-33.024470	2.168658	-113.525478	43.329502	21.883594	0.000000	-11.338569	2.168112	3.131721
1.590000	8.733420	2.614449	-178.865865	0.292859	0.506086	-1.216497	75.577152	-31.022003	-8.686437	-114.740640	43.357532	11.214632	0.000000	80.883136	-33.034492	2.299955	-113.657910	43.348992	21.869865	0.000000	-11.325578	1.960916	3.807596
1.595000	8.797043	2.599434	-178.837202	0.292785	0.505605	-1.216629	75.689194	-31.065239	-8.652806	-114.829168	43.399108	11.260138	0.000000	80.996447	-33.019200	2.331286	-113.709251	43.391543	21.925913	0.000000	-11.400595	2.172653	3.124879
1.600000	8.790763	2.586493	-178.812063	0.292846	0.504984	-1.216742	75.761733	-31.108843	-8.670587	-114.930664	43.441322	11.144768	0.000000	81.082346	-33.008277	2.386230	-113.790826	43.408684	21.955235	0.000000	-11.454692	2.157211	3.084798
1.605000	8.812836	2.592877	-178.805132	0.292971	0.504355	-1.216921	75.864117	-31.089139	-8.575573	-115.048014	43.438255	11.327852	0.000000	81.212916	-33.012473	2.470116	-113.870024	43.415368	21.988191	0.000000	-11.468269	2.184292	3.024423
1.610000	8.791315	2.585572	-178.803169	0.292947	0.503842	-1.216959	75.924031	-31.122513	-8.604685	-115.150432	43.502528	11.147637	0.000000	81.266320	-33.018944	2.518562	-113.968915	43.434280	21.977515	0.000000	-11.519627	2.178357	3.019544
1.615000	8.798135	2.618052	-178.835492	0.292919	0.503333	-1.217003	75.991133	-31.093608	-8.602602	-115.243040	43.482672	11.104337	0.000000	81.370820	-33.066580	2.605552	-114.087652	43.434587	21.940794	0.000000	-11.538907	2.186258	3.079925
1.620000	8.804580	2.622438	-178.826339	0.292912	0.502763	-1.217149	76.065424	-31.098063	-8.520100	-115.368183	43.528397	11.266413	0.000000	81.474623	-33.076811	2.680496	-114.181277	43.446095	21.964055	0.000000	-11.559757	2.186708	3.062757
1.625000	8.809740	2.611340	-178.801901	0.293000	0.502354	-1.217354	76.123402	-31.115757	-8.496589	-115.442799	43.562271	11.275489	0.000000	81.540632	-33.064198	2.724341	-114.213015	43.451779	21.993765	0.000000	-11.593228	2.181087	2.986643
1.630000	8.789197	2.582468	-178.738932	0.293044	0.501882	-1.217464	76.166312	-31.202458	-8.515817	-115.526085	43.614608	11.176575	0.000000	81.579540	-33.003261	2.753930	-114.270655	43.466242	22.016827	0.000000	-11.632686	2.138236	2.961331
1.635000	8.785275	2.579172	-178.731313	0.293042	0.501478	-1.217585	76.221064	-31.214190	-8.492149	-115.610144	43.625971	11.148091	0.000000	81.638606	-33.015233	2.792729	-114.328449	43.491025	22.025447	0.000000	-11.662409	2.125614	2.938411
1.640000	8.791758	2.592902	-178.745059	0.293017	0.501066	-1.217680	76.289088	-31.194523	-8.424481	-115.716484	43.609866	11.287451	0.000000	81.719784	-33.043884	2.857823	-114.403368	43.508217	22.022472	0.000000	-11.666583	2.122712	2.999317
1.645000	8.775053	2.594734	-178.725232	0.292985	0.500692	-1.217739	76.324200	-31.223443	-8.407940	-115.806854	43.641535	11.286168	0.000000	81.766226	-33.029843	2.913978	-114.474818	43.506876	22.015024	0.000000	-11.706727	2.088707	3.060516
1.650000	8.758534	2.599059	-178.722921	0.292918	0.500306	-1.217862	76.388762	-31.262123	-8.619032	-115.963526	43.347073	10.408529	0.000000	81.808900	-33.052721	2.966242	-114.541682	43.505553	22.004812	0.000000	-11.739337	2.097834	3.035459
1.655000	8.748285	2.578364	-178.703898	0.292945	0.499897	-1.217997	76.440866	-31.287242	-8.602802	-116.045927	43.357704	10.355291	0.000000	81.849125	-33.045173	2.989441	-114.597074	43.533128	22.047069	0.000000	-11.762520	2.104453	2.952552
1.660000	8.736948	2.569036	-178.690294	0.292940	0.499571	-1.218103	76.466006	-31.288067	-8.561674	-116.109100	43.361588	10.364615	0.000000	81.885055	-33.038184	3.028380	-114.638221	43.539810	22.055779	0.000000	-11.786699	2.098241	2.958470
1.665000	8.747511	2.565268	-178.672197	0.292898	0.499307	-1.218136	76.513120	-31.320093	-8.566223	-116.168178	43.383839	10.345955	0.000000	81.932212	-33.022653	3.056068	-114.676447	43.562732	22.074078	0.000000	-11.788686	2.054673	3.055352
1.670000	8.783903	2.578863	-178.698543	0.292909	0.498941	-1.218324	76.564533	-31.245355	-8.402610	-116.193883	43.636361	10.914578	0.000000	82.035535	-33.068099	3.118604	-114.715997	43.597786	22.113695	0.000000	-11.739785	2.091872	3.025248
